<?xml version="1.0" standalone="no"?>
<!DOCTYPE svg PUBLIC "-//W3C//DTD SVG 20010904//EN"
 "http://www.w3.org/TR/2001/REC-SVG-20010904/DTD/svg10.dtd">
<svg version="1.0" xmlns="http://www.w3.org/2000/svg"
 width="383.000000pt" height="383.000000pt" viewBox="0 0 383.000000 383.000000"
 preserveAspectRatio="xMidYMid meet">
<metadata>
Created by potrace 1.11, written by Peter Selinger 2001-2013
</metadata>
<g transform="translate(0.000000,383.000000) scale(0.100000,-0.100000)"
fill="#000000" stroke="none">
<path d="M2070 3823 c-23 -9 -79 -53 -135 -105 -28 -26 -73 -62 -100 -80 -28
-18 -54 -36 -60 -40 -5 -5 -41 -29 -80 -55 -149 -99 -240 -172 -348 -277 -118
-115 -168 -196 -203 -326 -19 -71 -25 -282 -10 -380 20 -139 117 -363 227
-528 55 -82 205 -280 225 -297 10 -9 76 -91 182 -225 121 -153 214 -334 238
-460 58 -305 -50 -525 -318 -648 -76 -35 -186 -48 -268 -31 -191 40 -312 190
-304 379 6 132 74 309 175 457 16 23 29 46 29 51 0 6 3 12 8 14 4 2 30 32 59
68 28 36 72 85 97 110 30 29 48 56 52 79 16 81 -65 142 -139 104 -38 -19 -216
-186 -250 -233 -42 -60 -205 -308 -225 -342 -59 -104 -122 -281 -137 -384 -15
-105 -17 -244 -5 -295 38 -160 164 -295 328 -351 91 -31 259 -32 392 -2 14 3
35 7 46 10 279 58 601 279 764 524 8 12 22 32 30 44 39 54 114 221 126 279 2
10 6 27 9 37 42 131 35 331 -16 475 -25 72 -100 229 -150 315 -41 70 -211 306
-256 355 -27 29 -175 211 -268 329 -94 119 -159 244 -181 347 -19 92 -22 123
-20 192 3 62 9 89 34 140 56 112 219 269 410 394 86 56 195 151 214 186 28 52
10 120 -40 153 -28 18 -105 28 -132 17z"/>
<path d="M2355 3420 c-58 -15 -85 -30 -86 -47 0 -10 0 -56 0 -103 0 -92 -13
-122 -52 -114 -34 6 -41 21 -42 93 0 38 -3 72 -6 75 -9 9 -101 -94 -126 -139
-27 -50 -53 -140 -55 -188 -1 -38 -5 -41 -59 -37 -30 1 -36 -10 -35 -60 l1
-35 58 1 c41 0 57 -3 57 -13 0 -7 -5 -13 -10 -13 -6 0 -26 -10 -45 -22 -31
-21 -55 -59 -62 -98 -9 -52 36 -121 94 -145 23 -10 33 -20 32 -32 -4 -24 31
-133 42 -133 5 0 9 -7 9 -16 0 -9 28 -43 62 -77 34 -33 63 -68 65 -76 4 -28
-33 -96 -71 -129 -21 -18 -36 -36 -34 -41 2 -5 40 -48 86 -97 161 -170 319
-454 362 -649 33 -147 31 -277 -6 -408 -8 -29 -16 -56 -17 -62 -26 -90 -84
-204 -175 -340 -37 -55 -70 -102 -74 -103 -5 -2 -8 -10 -8 -18 0 -8 -4 -14 -8
-14 -5 0 -17 -16 -28 -35 -10 -19 -22 -35 -25 -35 -4 0 -10 -8 -13 -17 -9 -22
7 -8 148 125 42 39 82 73 89 75 16 3 42 31 155 163 52 61 174 256 225 359 48
99 110 246 108 260 -1 3 6 22 14 42 19 51 62 226 70 288 4 28 9 61 11 75 10
64 19 237 15 287 -1 7 -37 31 -82 54 -102 53 -183 129 -200 187 l-13 44 47 40
c26 22 60 59 76 82 30 43 63 129 65 169 1 14 14 28 40 42 51 26 76 60 80 110
5 59 -23 108 -79 135 -25 12 -43 25 -40 28 3 4 36 6 73 7 l67 0 3 48 3 49 -51
-4 c-29 -3 -54 0 -59 6 -4 6 -11 37 -15 69 -8 73 -51 170 -99 222 l-37 40 0
-56 c0 -60 -19 -89 -54 -83 -33 5 -39 22 -39 118 l-1 95 -45 20 c-25 11 -59
22 -76 26 -16 4 -37 9 -46 11 -14 4 -16 -14 -16 -158 0 -200 -3 -218 -43 -218
-41 0 -51 26 -50 128 1 48 1 124 1 170 -1 91 -2 91 -76 72z m482 -564 c8 -8 7
-289 -1 -331 -18 -92 -76 -164 -176 -216 -40 -21 -60 -24 -185 -26 -137 -3
-142 -2 -201 26 -34 16 -78 45 -98 65 -33 31 -74 104 -83 146 -6 28 -7 326 -1
336 6 10 736 10 745 0z m-824 -132 c-2 -119 -2 -120 -44 -83 -34 30 -34 102 0
130 13 11 29 18 34 16 6 -2 10 -30 10 -63z m952 40 c25 -27 30 -51 19 -89 -6
-23 -52 -60 -62 -51 -3 4 -6 43 -7 86 0 89 9 99 50 54z m-479 -558 c57 2 119
7 138 12 33 10 35 9 41 -19 9 -41 31 -82 55 -104 26 -23 26 -24 -11 -65 -213
-236 -202 -229 -215 -134 -3 27 -8 58 -10 69 -17 78 -15 94 11 139 37 63 30
73 -44 74 -72 0 -76 -10 -37 -80 16 -30 23 -54 20 -78 -6 -50 -34 -193 -38
-198 -3 -2 -10 7 -17 20 -6 12 -15 25 -18 28 -4 3 -21 25 -38 48 -17 24 -52
66 -77 92 -25 27 -46 54 -46 60 0 6 11 26 24 43 13 18 29 50 36 72 l12 41 56
-11 c30 -6 101 -10 158 -9z"/>
</g>
</svg>
